{
	"asset":{
		"generator":"Khronos glTF Blender I/O v3.6.27",
		"version":"2.0"
	},
	"scene":0,
	"scenes":[
		{
			"name":"Scene",
			"nodes":[
				0
			]
		}
	],
	"nodes":[
		{
			"mesh":0,
			"name":"Plane.001"
		}
	],
	"meshes":[
		{
			"name":"Plane.002",
			"primitives":[
				{
					"attributes":{
						"POSITION":0,
						"NORMAL":1,
						"TEXCOORD_0":2
					},
					"indices":3
				}
			]
		}
	],
	"accessors":[
		{
			"bufferView":0,
			"componentType":5126,
			"count":196,
			"max":[
				0.75,
				0.75,
				0.13788357377052307
			],
			"min":[
				-0.75,
				-0.75,
				0
			],
			"type":"VEC3"
		},
		{
			"bufferView":1,
			"componentType":5126,
			"count":196,
			"type":"VEC3"
		},
		{
			"bufferView":2,
			"componentType":5126,
			"count":196,
			"type":"VEC2"
		},
		{
			"bufferView":3,
			"componentType":5123,
			"count":384,
			"type":"SCALAR"
		}
	],
	"bufferViews":[
		{
			"buffer":0,
			"byteLength":2352,
			"byteOffset":0,
			"target":34962
		},
		{
			"buffer":0,
			"byteLength":2352,
			"byteOffset":2352,
			"target":34962
		},
		{
			"buffer":0,
			"byteLength":1568,
			"byteOffset":4704,
			"target":34962
		},
		{
			"buffer":0,
			"byteLength":768,
			"byteOffset":6272,
			"target":34963
		}
	],
	"buffers":[
		{
			"byteLength":7040,
			"uri":"data:application/octet-stream;base64,"
		}
	]
}
